<svg width="2707" height="1232" xmlns="http://www.w3.org/2000/svg" xmlns:xlink="http://www.w3.org/1999/xlink" xml:space="preserve" overflow="hidden"><g transform="translate(-765 -216)"><text font-family="Arial,Arial_MSFontService,sans-serif" font-weight="400" font-size="83" transform="matrix(1 0 0 1 1651.67 1181)">model</text><text font-family="Arial,Arial_MSFontService,sans-serif" font-weight="400" font-size="83" transform="matrix(1 0 0 1 1899.17 1181)">fitting</text><text font-family="Arial,Arial_MSFontService,sans-serif" font-weight="400" font-size="83" transform="matrix(1 0 0 1 2096.25 1181)">, </text><text font-family="Arial,Arial_MSFontService,sans-serif" font-weight="400" font-size="83" transform="matrix(1 0 0 1 2142.08 1181)">comparison</text><text font-family="Arial,Arial_MSFontService,sans-serif" font-weight="400" font-size="83" transform="matrix(1 0 0 1 2568.33 1181)">, </text><text font-family="Arial,Arial_MSFontService,sans-serif" font-weight="400" font-size="83" transform="matrix(1 0 0 1 1675.34 1280)">selection</text><text font-family="Arial,Arial_MSFontService,sans-serif" font-weight="400" font-size="83" transform="matrix(1 0 0 1 2000.76 1280)">, </text><text font-family="Arial,Arial_MSFontService,sans-serif" font-weight="400" font-size="83" transform="matrix(1 0 0 1 2046.59 1280)">effect</text><text font-family="Arial,Arial_MSFontService,sans-serif" font-weight="400" font-size="83" transform="matrix(1 0 0 1 2269.68 1280)">strength</text><text font-family="Arial,Arial_MSFontService,sans-serif" font-weight="400" font-size="83" transform="matrix(1 0 0 1 1564.58 1379)">measurements</text><text font-family="Arial,Arial_MSFontService,sans-serif" font-weight="400" font-size="83" transform="matrix(1 0 0 1 2110 1379)">, and </text><text font-family="Arial,Arial_MSFontService,sans-serif" font-weight="400" font-size="83" transform="matrix(1 0 0 1 2316.25 1379)">correction</text><path d="M1836.17 910.817 1841.76 964.814 1787.76 970.402 1799.87 955.506 1697.94 872.695 1722.14 842.902 1824.07 925.713Z" stroke="#371E46" stroke-width="6.875" stroke-miterlimit="8" fill="#D9D9D9" fill-rule="evenodd"/><path d="M0 38.3852C13.7937 28.3311 18.818 17.4668 38.3852 0 48.4289 13.6609 59.906 22.1996 76.7705 38.3852 72.8331 39.0457 63.3861 37.8915 57.5779 38.3852 52.9754 70.2394 51.3041 138.643 57.5779 169.714 39.2142 169.453 29.7917 168.982 19.1926 169.714 22.8153 115.039 13.8337 91.841 19.1926 38.3852 14.4361 38.8198 4.60643 37.5577 0 38.3852Z" fill="#D9D9D9" fill-rule="evenodd" transform="matrix(0.630562 0.776139 0.776139 -0.630562 2187.05 935.022)"/><path d="M0 38.3852C11.7647 28.8905 19.9368 15.3719 38.3852 0 55.497 20.1396 58.763 19.4099 76.7705 38.3852 71.5642 38.2979 65.581 38.8515 57.5779 38.3852 52.8079 96.3666 61.7216 123.304 57.5779 169.714 45.7013 169.304 29.1457 168.431 19.1926 169.714 25.4693 118.084 25.322 102.884 19.1926 38.3852 14.8879 38.2784 4.2293 38.7891 0 38.3852Z" stroke="#371E46" stroke-width="6.875" stroke-miterlimit="8" fill="none" fill-rule="evenodd" transform="matrix(0.630562 0.776139 0.776139 -0.630562 2187.05 935.022)"/><path d="M1497.5 676.05C1480.66 690.614 1479.64 697.45 1459.5 714.5 1443.09 700.612 1430.61 685.927 1421.5 676.05 1430.57 675.528 1435.58 675.358 1440.5 676.05 1441.29 639.814 1437.85 582.607 1440.5 544.5 1448.92 545.772 1469.13 545.963 1478.5 544.5 1479.99 592.478 1473.66 630.877 1478.5 676.05 1483.06 676.92 1489.94 676.132 1497.5 676.05Z" fill="#CD53A1" fill-rule="evenodd"/><path d="M1497.5 676.05C1481.28 696.064 1473.43 703.548 1459.5 714.5 1443.16 697.053 1429.98 683.305 1421.5 676.05 1428.73 676.206 1432.59 676.634 1440.5 676.05 1437.88 614.718 1439.89 607.853 1440.5 544.5 1454.93 545.575 1466.56 545.975 1478.5 544.5 1482.25 590.44 1480.12 636.466 1478.5 676.05 1485.74 675.517 1491.23 675.315 1497.5 676.05Z" stroke="#371E46" stroke-width="6.875" stroke-miterlimit="8" fill="none" fill-rule="evenodd"/><path d="M1597.5 676.05C1583.86 691.138 1569.16 704.125 1559 714.5 1546.2 703.758 1529.9 686.741 1520.5 676.05 1527.41 675.735 1531.62 675.299 1539.75 676.05 1534.07 633.102 1536.45 597.58 1539.75 544.5 1551.72 542.946 1569.35 544.618 1578.25 544.5 1584.35 597.951 1578.96 626.852 1578.25 676.05 1587.48 676.32 1589.97 676.418 1597.5 676.05Z" fill="#FFC000" fill-rule="evenodd"/><path d="M1597.5 676.05C1588.75 686.446 1571.49 705.568 1559 714.5 1547.7 707.049 1538.63 694.892 1520.5 676.05 1527.91 676.569 1532.8 676.772 1539.75 676.05 1535.37 631.961 1537.78 599.194 1539.75 544.5 1556.58 546.29 1565.66 544.912 1578.25 544.5 1584.51 603.248 1580.58 635.218 1578.25 676.05 1586.02 676.226 1589.44 676.089 1597.5 676.05Z" stroke="#371E46" stroke-width="6.875" stroke-miterlimit="8" fill="none" fill-rule="evenodd"/><path d="M2580.5 676.05C2568.47 688.196 2550.81 702.806 2542 714.5 2523.74 696.935 2513.41 688.66 2503.5 676.05 2513.01 675.625 2515.91 675.355 2522.75 676.05 2519.17 619.985 2524.68 588.997 2522.75 544.5 2532.2 542.781 2549.22 542.597 2561.25 544.5 2565.07 602.185 2565.46 640.864 2561.25 676.05 2570.59 676.795 2572.08 676.511 2580.5 676.05Z" fill="#8A52AC" fill-rule="evenodd"/><path d="M2580.5 676.05C2566.69 689.138 2554.69 704.768 2542 714.5 2529.07 698.949 2519.56 689.421 2503.5 676.05 2508.34 675.292 2518.01 676.751 2522.75 676.05 2519.08 625.582 2524.12 578.504 2522.75 544.5 2535.77 545.7 2545.92 544.942 2561.25 544.5 2563.73 573.65 2564.49 641.414 2561.25 676.05 2566.2 675.609 2575.17 676.866 2580.5 676.05Z" stroke="#371E46" stroke-width="6.875" stroke-miterlimit="8" fill="none" fill-rule="evenodd"/><path d="M2679.5 676.05C2664.91 687.876 2649.27 703.665 2641.5 714.5 2622.92 697.343 2612.83 685.614 2603.5 676.05 2611.17 676.067 2618.52 675.649 2622.5 676.05 2616.56 627.982 2621.44 576.729 2622.5 544.5 2632.59 545.759 2642.6 545.788 2660.5 544.5 2654.01 577.079 2657.4 631.465 2660.5 676.05 2669.11 677.009 2672.22 675.478 2679.5 676.05Z" fill="#CD53A1" fill-rule="evenodd"/><path d="M2679.5 676.05C2664.56 693.489 2652.08 703.744 2641.5 714.5 2632.62 701.706 2621.85 691.689 2603.5 676.05 2609.85 676.814 2614.89 676.56 2622.5 676.05 2627.97 632.783 2625.39 583.638 2622.5 544.5 2631.05 544.974 2649.74 544.06 2660.5 544.5 2662.75 593.249 2662.66 639.248 2660.5 676.05 2665.84 676.539 2671.51 675.683 2679.5 676.05Z" stroke="#371E46" stroke-width="6.875" stroke-miterlimit="8" fill="none" fill-rule="evenodd"/><path d="M1386.5 676.05C1379.3 686.858 1364.06 701.745 1348 714.5 1336.41 706.079 1325.05 694.247 1309.5 676.05 1315.01 675.834 1322.12 675.653 1328.75 676.05 1335.04 629.7 1329.62 572.884 1328.75 544.5 1343.59 545.865 1348.35 543.004 1367.25 544.5 1368.33 608.243 1364.07 636.214 1367.25 676.05 1372.26 676.192 1379.96 675.541 1386.5 676.05Z" fill="#8A52AC" fill-rule="evenodd"/><path d="M1386.5 676.05C1373.03 688.655 1364.52 699.959 1348 714.5 1333.4 701.635 1325.79 689.263 1309.5 676.05 1318.23 675.458 1323.58 676.686 1328.75 676.05 1330.93 637.598 1333.59 580.135 1328.75 544.5 1341.03 544.715 1351.53 544.362 1367.25 544.5 1365.5 589.367 1373.81 634.177 1367.25 676.05 1373.21 675.417 1379.45 675.463 1386.5 676.05Z" stroke="#371E46" stroke-width="6.875" stroke-miterlimit="8" fill="none" fill-rule="evenodd"/><path d="M1202.5 411.667C1201.61 395.607 1213.65 382.053 1230.79 383.5 1308.34 378.605 1402.51 385.199 1464.07 383.5 1525.64 381.802 1631.14 374.684 1688.21 383.5 1701.29 380.63 1715.56 394.88 1716.5 411.667 1721.4 465.392 1718.93 491.133 1716.5 524.333 1714.91 542.003 1704.56 551.028 1688.21 552.5 1594.52 558.77 1542.81 561.219 1468.65 552.5 1394.48 543.781 1293.19 541.085 1230.79 552.5 1214.58 552.618 1204.64 541.639 1202.5 524.333 1200.63 495.781 1198.33 466.283 1202.5 411.667Z" fill="#7F7F7F" fill-rule="evenodd"/><path d="M1202.5 411.667C1203.74 393.667 1217.14 381.431 1230.79 383.5 1302.12 386.755 1409.62 388.081 1459.5 383.5 1509.38 378.92 1619.6 394.848 1688.21 383.5 1704.46 382.915 1714.96 395.436 1716.5 411.667 1719.03 452.403 1713.34 494.615 1716.5 524.333 1717.25 541.563 1704.89 553.643 1688.21 552.5 1602.38 554.664 1574.51 541.944 1473.22 552.5 1371.94 563.055 1331.46 553.403 1230.79 552.5 1214.2 553.626 1206.09 540.433 1202.5 524.333 1202.52 486.747 1199.88 435.876 1202.5 411.667Z" stroke="#000000" stroke-width="6.875" stroke-miterlimit="8" fill="none" fill-rule="evenodd"/><text fill="#FFFFFF" font-family="Arial,Arial_MSFontService,sans-serif" font-weight="400" font-size="83" transform="matrix(1 0 0 1 1245.95 498)">coordinates</text><path d="M1202.5 736.834C1201.61 720.679 1213.65 707.044 1230.79 708.5 1308.34 703.576 1402.51 710.208 1464.07 708.5 1525.64 706.792 1631.14 699.632 1688.21 708.5 1701.29 705.613 1715.56 719.947 1716.5 736.834 1721.4 790.876 1718.93 816.77 1716.5 850.166 1714.91 867.941 1704.56 877.019 1688.21 878.5 1594.52 884.808 1542.81 887.271 1468.65 878.5 1394.48 869.729 1293.19 867.017 1230.79 878.5 1214.58 878.619 1204.64 867.575 1202.5 850.166 1200.63 821.446 1198.33 791.773 1202.5 736.834Z" fill="#7F7F7F" fill-rule="evenodd"/><path d="M1202.5 736.834C1203.74 718.727 1217.14 706.419 1230.79 708.5 1302.12 711.774 1409.62 713.108 1459.5 708.5 1509.38 703.892 1619.6 719.915 1688.21 708.5 1704.46 707.911 1714.96 720.506 1716.5 736.834 1719.03 777.811 1713.34 820.273 1716.5 850.166 1717.25 867.498 1704.89 879.65 1688.21 878.5 1602.38 880.677 1574.51 867.882 1473.22 878.5 1371.94 889.118 1331.46 879.409 1230.79 878.5 1214.2 879.633 1206.09 866.362 1202.5 850.166 1202.52 812.358 1199.88 761.186 1202.5 736.834Z" stroke="#000000" stroke-width="6.875" stroke-miterlimit="8" fill="none" fill-rule="evenodd"/><text fill="#FFFFFF" font-family="Arial,Arial_MSFontService,sans-serif" font-weight="400" font-size="83" transform="matrix(1 0 0 1 1284.9 823)">distances</text><path d="M2337.5 411.667C2336.61 395.607 2348.65 382.053 2365.79 383.5 2443.34 378.605 2537.51 385.199 2599.07 383.5 2660.64 381.802 2766.14 374.684 2823.21 383.5 2836.29 380.63 2850.56 394.88 2851.5 411.667 2856.4 465.392 2853.93 491.133 2851.5 524.333 2849.91 542.003 2839.56 551.028 2823.21 552.5 2729.52 558.77 2677.81 561.219 2603.65 552.5 2529.48 543.781 2428.19 541.085 2365.79 552.5 2349.58 552.618 2339.64 541.639 2337.5 524.333 2335.63 495.781 2333.33 466.283 2337.5 411.667Z" fill="#7F7F7F" fill-rule="evenodd"/><path d="M2337.5 411.667C2338.74 393.667 2352.14 381.431 2365.79 383.5 2437.12 386.755 2544.62 388.081 2594.5 383.5 2644.38 378.92 2754.6 394.848 2823.21 383.5 2839.46 382.915 2849.96 395.436 2851.5 411.667 2854.03 452.403 2848.34 494.615 2851.5 524.333 2852.25 541.563 2839.89 553.643 2823.21 552.5 2737.38 554.664 2709.51 541.944 2608.22 552.5 2506.94 563.055 2466.46 553.403 2365.79 552.5 2349.2 553.626 2341.09 540.433 2337.5 524.333 2337.52 486.747 2334.88 435.876 2337.5 411.667Z" stroke="#000000" stroke-width="6.875" stroke-miterlimit="8" fill="none" fill-rule="evenodd"/><text fill="#FFFFFF" font-family="Arial,Arial_MSFontService,sans-serif" font-weight="400" font-size="83" transform="matrix(1 0 0 1 2440.4 498)">edge</text><text fill="#FFFFFF" font-family="Arial,Arial_MSFontService,sans-serif" font-weight="400" font-size="83" transform="matrix(1 0 0 1 2646.65 498)">list</text><path d="M2337.5 743.834C2336.61 727.679 2348.65 714.044 2365.79 715.5 2443.34 710.576 2537.51 717.208 2599.07 715.5 2660.64 713.791 2766.14 706.632 2823.21 715.5 2836.29 712.613 2850.56 726.947 2851.5 743.834 2856.4 797.876 2853.93 823.77 2851.5 857.166 2849.91 874.941 2839.56 884.019 2823.21 885.5 2729.52 891.807 2677.81 894.271 2603.65 885.5 2529.48 876.729 2428.19 874.017 2365.79 885.5 2349.58 885.619 2339.64 874.575 2337.5 857.166 2335.63 828.445 2333.33 798.773 2337.5 743.834Z" fill="#7F7F7F" fill-rule="evenodd"/><path d="M2337.5 743.834C2338.74 725.727 2352.14 713.419 2365.79 715.5 2437.12 718.774 2544.62 720.107 2594.5 715.5 2644.38 710.892 2754.6 726.915 2823.21 715.5 2839.46 714.911 2849.96 727.506 2851.5 743.834 2854.03 784.811 2848.34 827.273 2851.5 857.166 2852.25 874.498 2839.89 886.65 2823.21 885.5 2737.38 887.677 2709.51 874.882 2608.22 885.5 2506.94 896.118 2466.46 886.409 2365.79 885.5 2349.2 886.633 2341.09 873.362 2337.5 857.166 2337.52 819.358 2334.88 768.186 2337.5 743.834Z" stroke="#000000" stroke-width="6.875" stroke-miterlimit="8" fill="none" fill-rule="evenodd"/><text fill="#FFFFFF" font-family="Arial,Arial_MSFontService,sans-serif" font-weight="400" font-size="83" transform="matrix(1 0 0 1 2472.48 830)">scores</text><path d="M2679.5 352.05C2668.34 361.226 2651.07 378.553 2641.5 390.5 2622.82 373.736 2623.21 369.132 2603.5 352.05 2609.02 351.328 2615.93 351.835 2622.5 352.05 2618.97 317.36 2619.95 258.916 2622.5 220.5 2630.26 220.965 2643.04 219.451 2660.5 220.5 2659.55 279.647 2665.72 317.251 2660.5 352.05 2664.95 353.003 2671.05 352.367 2679.5 352.05Z" fill="#CD53A1" fill-rule="evenodd"/><path d="M2679.5 352.05C2664.91 365.876 2649.6 379.681 2641.5 390.5 2628.78 378.911 2612.04 363.912 2603.5 352.05 2610.9 352.187 2613.53 351.893 2622.5 352.05 2627.95 295.454 2626.17 264.777 2622.5 220.5 2632.33 220.217 2645.7 220.041 2660.5 220.5 2660.74 247.501 2662.5 319.872 2660.5 352.05 2667.21 351.885 2675.69 351.647 2679.5 352.05Z" stroke="#371E46" stroke-width="6.875" stroke-miterlimit="8" fill="none" fill-rule="evenodd"/><path d="M2893.95 785.5C2876.37 767.373 2872.62 766.237 2855.5 747 2865.33 738.609 2883.09 721.878 2893.95 708.5 2893.54 716.948 2893.12 723.082 2893.95 727.75 2946.97 726.886 2965.47 731.443 3025.5 727.75 3026.49 739.071 3023.79 749.667 3025.5 766.25 2976.94 762.797 2922.46 770.228 2893.95 766.25 2894.5 770.523 2894.87 776.093 2893.95 785.5Z" fill="#FFC000" fill-rule="evenodd"/><path d="M2893.95 785.5C2878.85 773.171 2867.41 760.281 2855.5 747 2865.17 738.933 2878.54 726.036 2893.95 708.5 2893.7 717.086 2893.47 720.044 2893.95 727.75 2922.65 732.479 2979.84 725.318 3025.5 727.75 3027.13 742.79 3024.62 757.858 3025.5 766.25 2980.78 759.781 2941.96 772.388 2893.95 766.25 2894.02 775.475 2893.56 779.831 2893.95 785.5Z" stroke="#371E46" stroke-width="6.875" stroke-miterlimit="8" fill="none" fill-rule="evenodd"/><path d="M1159.05 760.5C1168.54 773.113 1182.23 784.148 1197.5 799 1180.58 819.556 1169.46 829.111 1159.05 837.5 1159.5 830.893 1158.99 824.774 1159.05 818.25 1097.57 813.576 1072.59 824.703 1027.5 818.25 1026.22 799.094 1027.96 794.414 1027.5 779.75 1070.75 777.623 1110.54 775.485 1159.05 779.75 1159.59 773.702 1159.18 765.934 1159.05 760.5Z" fill="#648218" fill-rule="evenodd"/><path d="M1159.05 760.5C1174.79 773.514 1183.76 781.926 1197.5 799 1191.09 808.011 1172.57 821.699 1159.05 837.5 1158.23 828.332 1159.35 827.514 1159.05 818.25 1131.9 812.205 1086.37 813.991 1027.5 818.25 1027.8 802.582 1025.79 792.976 1027.5 779.75 1085.19 779.377 1131.35 780.161 1159.05 779.75 1158.18 771.469 1159.88 768.494 1159.05 760.5Z" stroke="#371E46" stroke-width="6.875" stroke-miterlimit="8" fill="none" fill-rule="evenodd"/><path d="M2893.95 886.5C2884.33 876.804 2864.76 859.421 2855.5 848 2868.87 832.765 2880.17 826.146 2893.95 809.5 2894.47 818.693 2893.42 822.431 2893.95 828.75 2920.46 834.974 2994.61 827.238 3025.5 828.75 3024.79 840.446 3026.8 858.792 3025.5 867.25 2973.74 867.769 2948.05 864.171 2893.95 867.25 2893.42 874.475 2893.16 881.333 2893.95 886.5Z" fill="#648218" fill-rule="evenodd"/><path d="M2893.95 886.5C2878.01 866.77 2865.85 858.762 2855.5 848 2873.52 832.197 2886.31 820.708 2893.95 809.5 2893.82 818.059 2894.89 821.245 2893.95 828.75 2946.29 833.599 2990.9 823.707 3025.5 828.75 3027.12 847.932 3026.85 849.682 3025.5 867.25 2981.32 867.465 2920.32 870.64 2893.95 867.25 2894.84 871.8 2893.67 880.271 2893.95 886.5Z" stroke="#371E46" stroke-width="6.875" stroke-miterlimit="8" fill="none" fill-rule="evenodd"/><path d="M1497.5 352.05C1479.81 367.536 1477.34 375.822 1459.5 390.5 1447.38 377.104 1439.46 367.426 1421.5 352.05 1430.6 352.548 1432.21 351.886 1440.5 352.05 1444.66 303.051 1439.38 265.916 1440.5 220.5 1457.16 218.682 1459.91 220.088 1478.5 220.5 1481.02 277.899 1474.32 296.273 1478.5 352.05 1486.45 351.536 1489.51 351.147 1497.5 352.05Z" fill="#CD53A1" fill-rule="evenodd"/><path d="M1497.5 352.05C1485.56 364.59 1472.09 377.897 1459.5 390.5 1444.24 372.406 1434.15 363.984 1421.5 352.05 1428.94 351.695 1435.81 352.374 1440.5 352.05 1440.36 287.376 1434.18 286.262 1440.5 220.5 1449.06 220.572 1467.16 222.1 1478.5 220.5 1482.98 285.08 1476.06 292.479 1478.5 352.05 1487.18 352.829 1493.15 351.271 1497.5 352.05Z" stroke="#371E46" stroke-width="6.875" stroke-miterlimit="8" fill="none" fill-rule="evenodd"/><path d="M1597.5 352.05C1587.57 365.51 1576.1 376.533 1559 390.5 1547.09 380.692 1539.54 371.006 1520.5 352.05 1527.49 352.378 1530.56 352.862 1539.75 352.05 1542.44 309.531 1540.88 247.053 1539.75 220.5 1548.59 219.032 1570 219.562 1578.25 220.5 1581.95 254.991 1579.19 297.308 1578.25 352.05 1585.91 351.742 1593.34 351.677 1597.5 352.05Z" fill="#FFC000" fill-rule="evenodd"/><path d="M1597.5 352.05C1584.64 368.237 1571.02 379.422 1559 390.5 1550.27 378.303 1535.93 368.435 1520.5 352.05 1525.03 352.997 1534.28 352.095 1539.75 352.05 1534.26 303.848 1538.36 279.218 1539.75 220.5 1551.36 222.387 1569.23 220.678 1578.25 220.5 1575.77 284.748 1582.9 298.576 1578.25 352.05 1584.61 352.494 1592.26 352.746 1597.5 352.05Z" stroke="#371E46" stroke-width="6.875" stroke-miterlimit="8" fill="none" fill-rule="evenodd"/><path d="M1398.5 352.05C1378.42 370.086 1369.85 376.872 1360 390.5 1352.01 381.761 1329.87 362.881 1321.5 352.05 1330.37 351.936 1333.94 352.724 1340.75 352.05 1336.25 311.336 1334.69 271.831 1340.75 220.5 1353.79 220.088 1361.77 219.022 1379.25 220.5 1378.61 258.475 1378.6 302.665 1379.25 352.05 1386.67 352.443 1390.39 352.537 1398.5 352.05Z" fill="#8A52AC" fill-rule="evenodd"/><path d="M1398.5 352.05C1390.35 360.25 1375.67 375.328 1360 390.5 1350.9 382.294 1337.18 367.433 1321.5 352.05 1327.75 352.037 1332.64 351.597 1340.75 352.05 1340.83 305.212 1345.33 268.427 1340.75 220.5 1354.57 220.796 1363.33 218.966 1379.25 220.5 1375.96 263.86 1385.8 297.991 1379.25 352.05 1383.26 351.295 1392.11 352.276 1398.5 352.05Z" stroke="#371E46" stroke-width="6.875" stroke-miterlimit="8" fill="none" fill-rule="evenodd"/><path d="M1923.5 1060.06 2165.65 1060.06 2165.65 1066.94 1923.5 1066.94ZM2161.07 1049.75 2188.57 1063.5 2161.07 1077.25Z"/><path d="M3.4375-6.02634e-06 3.43782 182.941-3.43718 182.941-3.4375 6.02634e-06ZM13.7503 178.358 0.000360892 205.858-13.7497 178.358Z" transform="matrix(1 0 0 -1 1937.5 1078.36)"/><path d="M2162.25 1046.25C2048.16 1054.11 1951.45 999.43 1946.26 924.104" stroke="#595959" stroke-width="6.875" stroke-miterlimit="8" fill="none" fill-rule="evenodd"/><text font-family="Arial,Arial_MSFontService,sans-serif" font-weight="400" font-size="64" transform="matrix(1 0 0 1 804.103 640)">distance</text><text font-family="Arial,Arial_MSFontService,sans-serif" font-weight="400" font-size="64" transform="matrix(1 0 0 1 1060.2 640)">function</text><text font-family="Arial,Arial_MSFontService,sans-serif" font-weight="400" font-size="64" transform="matrix(1 0 0 1 2701.23 640)">node</text><text font-family="Arial,Arial_MSFontService,sans-serif" font-weight="400" font-size="64" transform="matrix(1 0 0 1 2861.08 640)">observation</text><text font-family="Arial,Arial_MSFontService,sans-serif" font-weight="400" font-size="64" transform="matrix(1 0 0 1 3209.41 640)">function</text><path d="M2299 431.5 2337.5 470 2299 508.5 2299 489.25 1716.5 489.25 1716.5 450.75 2299 450.75Z" stroke="#371E46" stroke-width="6.875" stroke-miterlimit="8" fill="#8A52AC" fill-rule="evenodd"/><text font-family="Arial,Arial_MSFontService,sans-serif" font-weight="400" font-size="64" transform="matrix(1 0 0 1 1783.2 415)">graph</text><text font-family="Arial,Arial_MSFontService,sans-serif" font-weight="400" font-size="64" transform="matrix(1 0 0 1 1964.24 415)">calculation</text></g></svg>